<?xml version="1.0" standalone="no"?>
<!DOCTYPE svg PUBLIC "-//W3C//DTD SVG 20010904//EN"
 "http://www.w3.org/TR/2001/REC-SVG-20010904/DTD/svg10.dtd">
<svg version="1.0" xmlns="http://www.w3.org/2000/svg"
 width="640.000000pt" height="640.000000pt" viewBox="0 0 640.000000 640.000000"
 preserveAspectRatio="xMidYMid meet">
<metadata>
Created by potrace 1.11, written by Peter Selinger 2001-2013
</metadata>
<g transform="translate(0.000000,640.000000) scale(0.100000,-0.100000)"
fill="#000000" stroke="none">
<path d="M2650 5886 c-527 -139 -951 -357 -1275 -657 -101 -93 -122 -116 -195
-199 -320 -366 -555 -883 -646 -1425 -2 -16 -9 -55 -14 -85 -10 -59 -15 -94
-30 -210 -6 -45 -10 -629 -10 -1457 l0 -1383 1268 0 1267 0 0 1460 0 1460 -35
0 c-19 0 -263 1 -541 1 l-506 0 2 272 c1 304 3 316 75 448 46 84 101 161 209
296 153 193 271 291 494 413 l77 42 0 529 c0 291 -3 529 -7 528 -5 0 -64 -15
-133 -33z"/>
<path d="M5679 5916 c-2 -3 -16 -7 -29 -10 -413 -92 -809 -264 -1130 -490 -47
-33 -87 -62 -90 -65 -3 -3 -32 -28 -65 -55 -90 -73 -271 -260 -347 -357 -109
-140 -204 -294 -288 -464 -169 -345 -266 -694 -326 -1170 -4 -33 -8 -684 -8
-1447 l-2 -1388 1268 0 1268 0 0 1460 0 1460 -257 0 c-142 1 -385 1 -540 0
l-283 0 -1 38 c-4 224 2 498 11 534 12 44 55 136 93 198 24 40 146 208 168
230 8 8 33 40 56 71 40 52 135 147 194 194 63 50 215 145 310 193 l26 14 -1
525 c-1 496 -4 552 -27 529z"/>
</g>
</svg>
